# xmcd
#
# Track frame offsets:
#         183
#       13370
#       29250
#       43335
#       62563
#       82950
#       96638
#      109578
#      123345
#      143620
#      154995
#      170518
#      185430
#      194578
#      208985
#      219975
#      237733
#      253285
#
# Disc length:   3670 seconds
#
# Revision:        4
# Processed by: cddbd v1.5.2PL0 Copyright (c) Steve Scherf et al.
# Submitted via: libcddb 1.3.2
#
DISCID=140e5412
DTITLE=Various Artist - Midnight Jazz Moods Vol.1
DYEAR=1900
DGENRE=Jazz
TTITLE0=Billie Holiday - That Ole Devil Called Love - Billie Holiday
TTITLE1=Aretha Franklin - What A Diff'rence A Day Makes - Aretha Franklin
TTITLE2=Etta James - Stormy Weather - Etta James
TTITLE3=John Coltrane - In A Sentimental Mood - John Coltrane
TTITLE4=Stan Getz - Don't Cry For Me Argentina - Stan Getz
TTITLE5=Louis Armstrong - A Kiss To Build A Dream On - Louis Armstrong
TTITLE6=Dinah Washington - All Or Nothing - Dinah Washington
TTITLE7=Sarah Vaughan - Ain't Misbehavin' - Sarah Vaughan
TTITLE8=Lou Rawls - Feeling Good - Lou Rawls
TTITLE9=Ella Fitzgerald - That Old Black Magic - Ella Fitzgerald
TTITLE10=Fontella Bass - You've Lost That Lovin' Feelin' - Fontella Bass
TTITLE11=Peggy Lee - Mr Wonderful - Peggy Lee
TTITLE12=Dave Brubeck - Unsquare Dance - Dave Brubeck
TTITLE13=Duke Ellington - Perdido - Duke Ellington
TTITLE14=Mel Tormé - 'Round Midnight - Mel Tormé
TTITLE15=Count Basie - Call Me Darling - Count Basie
TTITLE16=Bessie Smith - Careless Love Blues - Bessie Smith
TTITLE17=Charlie Parker - Cool Blues - Charlie Parker
EXTD=
EXTT0=
EXTT1=
EXTT2=
EXTT3=
EXTT4=
EXTT5=
EXTT6=
EXTT7=
EXTT8=
EXTT9=
EXTT10=
EXTT11=
EXTT12=
EXTT13=
EXTT14=
EXTT15=
EXTT16=
EXTT17=
PLAYORDER=
